<?xml version="1.0" standalone="no"?>
<!DOCTYPE svg PUBLIC "-//W3C//DTD SVG 20010904//EN"
 "http://www.w3.org/TR/2001/REC-SVG-20010904/DTD/svg10.dtd">
<svg version="1.0" xmlns="http://www.w3.org/2000/svg"
 width="512.000000px" height="512.000000px" viewBox="0 0 512 512"
 y="0px"
 x="0px"
 preserveAspectRatio="xMidYMid meet">

<g transform="translate(0.000000,512.000000) scale(0.100000,-0.100000)"
fill="#000000" stroke="none">
<path d="M0 4956 l0 -164 480 -475 480 -476 0 -1368 c0 -924 4 -1380 11 -1406
13 -49 63 -105 114 -128 38 -18 107 -19 1430 -19 l1390 0 460 -460 460 -460
147 0 148 0 0 143 0 143 -465 464 -465 465 -2 1421 -3 1422 -30 43 c-18 26
-50 53 -80 68 l-49 26 -1428 5 -1428 5 -458 458 -457 457 -128 0 -127 0 0
-164z m3780 -2252 l0 -1086 -1085 1078 c-597 592 -1085 1081 -1085 1086 0 4
488 8 1085 8 l1085 0 0 -1086z m-950 -722 l655 -652 -1057 0 -1058 0 0 1052 0
1053 403 -400 c221 -220 697 -694 1057 -1053z"/>
</g>
</svg>
